<svg xmlns="http://www.w3.org/2000/svg" width="1200" height="630" viewBox="0 0 1200 630">
  <defs>
    <linearGradient id="bg" x1="0%" y1="0%" x2="100%" y2="100%">
      <stop offset="0%" style="stop-color:#001a0d"/>
      <stop offset="100%" style="stop-color:#000d06"/>
    </linearGradient>
    <linearGradient id="accent" x1="0%" y1="0%" x2="100%" y2="0%">
      <stop offset="0%" style="stop-color:#10b981"/>
      <stop offset="100%" style="stop-color:#06b6d4"/>
    </linearGradient>
    <radialGradient id="orb1" cx="50%" cy="50%">
      <stop offset="0%" style="stop-color:#10b981;stop-opacity:0.2"/>
      <stop offset="100%" style="stop-color:#10b981;stop-opacity:0"/>
    </radialGradient>
    <radialGradient id="orb2" cx="50%" cy="50%">
      <stop offset="0%" style="stop-color:#06b6d4;stop-opacity:0.12"/>
      <stop offset="100%" style="stop-color:#06b6d4;stop-opacity:0"/>
    </radialGradient>
  </defs>
  <rect width="1200" height="630" fill="url(#bg)"/>
  <ellipse cx="1000" cy="280" rx="400" ry="400" fill="url(#orb1)"/>
  <ellipse cx="800" cy="500" rx="280" ry="280" fill="url(#orb2)"/>
  <!-- Tissue fiber pattern -->
  <g opacity="0.07" stroke="#10b981" stroke-width="1.5" fill="none">
    <path d="M700,50 C800,150 750,250 850,350 C950,450 900,550 1000,630"/>
    <path d="M750,50 C850,150 800,250 900,350 C1000,450 950,550 1050,630"/>
    <path d="M800,50 C900,150 850,250 950,350 C1050,450 1000,550 1100,630"/>
    <path d="M850,50 C950,150 900,250 1000,350 C1100,450 1050,550 1150,630"/>
    <path d="M900,50 C1000,150 950,250 1050,350 C1150,450 1100,550 1200,630"/>
    <path d="M650,50 C750,150 700,250 800,350 C900,450 850,550 950,630"/>
  </g>
  <!-- Molecular nodes -->
  <g opacity="0.22">
    <circle cx="920" cy="160" r="14" fill="#10b981"/>
    <circle cx="980" cy="200" r="9" fill="#10b981"/>
    <circle cx="960" cy="260" r="11" fill="#06b6d4"/>
    <circle cx="1020" cy="230" r="7" fill="#10b981"/>
    <circle cx="1000" cy="300" r="13" fill="#10b981"/>
    <circle cx="940" cy="320" r="8" fill="#06b6d4"/>
    <line x1="920" y1="160" x2="980" y2="200" stroke="#10b981" stroke-width="2"/>
    <line x1="980" y1="200" x2="960" y2="260" stroke="#10b981" stroke-width="2"/>
    <line x1="980" y1="200" x2="1020" y2="230" stroke="#10b981" stroke-width="2"/>
    <line x1="960" y1="260" x2="1000" y2="300" stroke="#06b6d4" stroke-width="2"/>
    <line x1="1000" y1="300" x2="940" y2="320" stroke="#10b981" stroke-width="2"/>
    <line x1="920" y1="160" x2="960" y2="260" stroke="#06b6d4" stroke-width="1.5" stroke-dasharray="4,3"/>
  </g>
  <!-- Plus/cross healing symbol -->
  <g opacity="0.12" fill="#10b981">
    <rect x="1080" y="430" width="60" height="20" rx="5"/>
    <rect x="1090" y="420" width="40" height="40" rx="5"/>
  </g>
  <rect x="0" y="0" width="1200" height="4" fill="url(#accent)"/>
  <rect x="80" y="185" width="200" height="34" rx="17" fill="#10b981" opacity="0.12"/>
  <rect x="80" y="185" width="200" height="34" rx="17" fill="none" stroke="#10b981" stroke-width="1" opacity="0.4"/>
  <text x="180" y="207" font-family="system-ui,sans-serif" font-size="12" font-weight="700" fill="#10b981" text-anchor="middle" letter-spacing="2">RECOVERY &amp; REPAIR</text>
  <text x="80" y="278" font-family="system-ui,sans-serif" font-size="52" font-weight="800" fill="white">BPC-157</text>
  <text x="80" y="340" font-family="system-ui,sans-serif" font-size="36" font-weight="700" fill="rgba(255,255,255,0.85)">The Complete Research</text>
  <text x="80" y="388" font-family="system-ui,sans-serif" font-size="36" font-weight="700" fill="rgba(255,255,255,0.85)">Guide 2026</text>
  <rect x="80" y="408" width="120" height="3" rx="1.5" fill="url(#accent)"/>
  <text x="80" y="448" font-family="system-ui,sans-serif" font-size="18" fill="rgba(255,255,255,0.45)">Mechanisms · Research Findings · Protocols</text>
  <text x="80" y="580" font-family="system-ui,sans-serif" font-size="15" fill="rgba(255,255,255,0.3)" letter-spacing="3">PEPTIDESMAXXING.COM</text>
</svg>
