<svg xmlns="http://www.w3.org/2000/svg" width="1200" height="630" viewBox="0 0 1200 630">
  <defs>
    <linearGradient id="bg" x1="0%" y1="0%" x2="100%" y2="100%">
      <stop offset="0%" style="stop-color:#000d1a"/>
      <stop offset="100%" style="stop-color:#00050f"/>
    </linearGradient>
    <linearGradient id="accent" x1="0%" y1="0%" x2="100%" y2="0%">
      <stop offset="0%" style="stop-color:#3b82f6"/>
      <stop offset="100%" style="stop-color:#06b6d4"/>
    </linearGradient>
    <radialGradient id="orb1" cx="50%" cy="50%">
      <stop offset="0%" style="stop-color:#3b82f6;stop-opacity:0.2"/>
      <stop offset="100%" style="stop-color:#3b82f6;stop-opacity:0"/>
    </radialGradient>
    <radialGradient id="orb2" cx="50%" cy="50%">
      <stop offset="0%" style="stop-color:#06b6d4;stop-opacity:0.15"/>
      <stop offset="100%" style="stop-color:#06b6d4;stop-opacity:0"/>
    </radialGradient>
  </defs>
  <rect width="1200" height="630" fill="url(#bg)"/>
  <ellipse cx="980" cy="315" rx="420" ry="420" fill="url(#orb1)"/>
  <ellipse cx="800" cy="150" rx="250" ry="250" fill="url(#orb2)"/>
  <!-- Body silhouette / chart lines suggesting body composition -->
  <g opacity="0.08" stroke="#3b82f6" stroke-width="1.5" fill="none">
    <!-- Rising chart bars -->
    <rect x="800" y="350" width="40" height="200" rx="4"/>
    <rect x="860" y="290" width="40" height="260" rx="4"/>
    <rect x="920" y="220" width="40" height="330" rx="4"/>
    <rect x="980" y="160" width="40" height="390" rx="4"/>
    <rect x="1040" y="110" width="40" height="440" rx="4"/>
    <rect x="1100" y="80" width="40" height="470" rx="4"/>
  </g>
  <!-- Upward trend line -->
  <g opacity="0.2" stroke="#06b6d4" stroke-width="3" fill="none">
    <polyline points="780,500 850,420 930,330 1020,240 1110,150"/>
    <circle cx="780" cy="500" r="6" fill="#06b6d4"/>
    <circle cx="850" cy="420" r="6" fill="#06b6d4"/>
    <circle cx="930" cy="330" r="6" fill="#06b6d4"/>
    <circle cx="1020" cy="240" r="6" fill="#06b6d4"/>
    <circle cx="1110" cy="150" r="6" fill="#06b6d4"/>
  </g>
  <!-- Grid dots -->
  <g opacity="0.06" fill="#3b82f6">
    <circle cx="760" cy="100" r="2"/><circle cx="810" cy="100" r="2"/><circle cx="860" cy="100" r="2"/>
    <circle cx="910" cy="100" r="2"/><circle cx="960" cy="100" r="2"/><circle cx="1010" cy="100" r="2"/>
    <circle cx="760" cy="150" r="2"/><circle cx="810" cy="150" r="2"/><circle cx="860" cy="150" r="2"/>
    <circle cx="910" cy="150" r="2"/><circle cx="960" cy="150" r="2"/><circle cx="1010" cy="150" r="2"/>
    <circle cx="760" cy="200" r="2"/><circle cx="810" cy="200" r="2"/><circle cx="860" cy="200" r="2"/>
    <circle cx="910" cy="200" r="2"/><circle cx="960" cy="200" r="2"/><circle cx="1010" cy="200" r="2"/>
  </g>
  <rect x="0" y="0" width="1200" height="4" fill="url(#accent)"/>
  <rect x="80" y="185" width="230" height="34" rx="17" fill="#3b82f6" opacity="0.12"/>
  <rect x="80" y="185" width="230" height="34" rx="17" fill="none" stroke="#3b82f6" stroke-width="1" opacity="0.4"/>
  <text x="195" y="207" font-family="system-ui,sans-serif" font-size="12" font-weight="700" fill="#3b82f6" text-anchor="middle" letter-spacing="2">GROWTH HORMONE PEPTIDES</text>
  <text x="80" y="278" font-family="system-ui,sans-serif" font-size="46" font-weight="800" fill="white">GH Peptides for</text>
  <text x="80" y="338" font-family="system-ui,sans-serif" font-size="46" font-weight="800" fill="white">Aesthetics &amp; Body</text>
  <text x="80" y="398" font-family="system-ui,sans-serif" font-size="46" font-weight="800" fill="white">Recomposition</text>
  <rect x="80" y="418" width="120" height="3" rx="1.5" fill="url(#accent)"/>
  <text x="80" y="458" font-family="system-ui,sans-serif" font-size="18" fill="rgba(255,255,255,0.45)">Ipamorelin · CJC-1295 · AOD-9604</text>
  <text x="80" y="580" font-family="system-ui,sans-serif" font-size="15" fill="rgba(255,255,255,0.3)" letter-spacing="3">PEPTIDESMAXXING.COM</text>
</svg>
