<svg xmlns="http://www.w3.org/2000/svg" width="1200" height="630" viewBox="0 0 1200 630">
  <defs>
    <linearGradient id="bg" x1="0%" y1="0%" x2="100%" y2="100%">
      <stop offset="0%" style="stop-color:#1a0a00"/>
      <stop offset="100%" style="stop-color:#0d0505"/>
    </linearGradient>
    <linearGradient id="accent" x1="0%" y1="0%" x2="100%" y2="0%">
      <stop offset="0%" style="stop-color:#f59e0b"/>
      <stop offset="100%" style="stop-color:#ef4444"/>
    </linearGradient>
    <radialGradient id="orb1" cx="50%" cy="50%">
      <stop offset="0%" style="stop-color:#f59e0b;stop-opacity:0.18"/>
      <stop offset="100%" style="stop-color:#f59e0b;stop-opacity:0"/>
    </radialGradient>
    <radialGradient id="orb2" cx="50%" cy="50%">
      <stop offset="0%" style="stop-color:#ef4444;stop-opacity:0.12"/>
      <stop offset="100%" style="stop-color:#ef4444;stop-opacity:0"/>
    </radialGradient>
  </defs>
  <rect width="1200" height="630" fill="url(#bg)"/>
  <ellipse cx="1000" cy="250" rx="400" ry="400" fill="url(#orb1)"/>
  <ellipse cx="750" cy="500" rx="300" ry="300" fill="url(#orb2)"/>
  <!-- Collagen fiber cross-hatch pattern -->
  <g opacity="0.07" stroke="#f59e0b" stroke-width="1.5" fill="none">
    <line x1="700" y1="0" x2="1200" y2="500"/>
    <line x1="750" y1="0" x2="1200" y2="450"/>
    <line x1="800" y1="0" x2="1200" y2="400"/>
    <line x1="850" y1="0" x2="1200" y2="350"/>
    <line x1="900" y1="0" x2="1200" y2="300"/>
    <line x1="950" y1="0" x2="1200" y2="250"/>
    <line x1="1000" y1="0" x2="1200" y2="200"/>
    <line x1="700" y1="630" x2="1200" y2="130"/>
    <line x1="750" y1="630" x2="1200" y2="180"/>
    <line x1="800" y1="630" x2="1200" y2="230"/>
  </g>
  <!-- Circular cell rings -->
  <g opacity="0.08" stroke="#f59e0b" stroke-width="1" fill="none">
    <circle cx="1050" cy="280" r="180"/>
    <circle cx="1050" cy="280" r="140"/>
    <circle cx="1050" cy="280" r="100"/>
    <circle cx="1050" cy="280" r="60"/>
    <circle cx="1050" cy="280" r="20"/>
  </g>
  <!-- Copper atoms -->
  <g opacity="0.25">
    <circle cx="980" cy="180" r="12" fill="#f59e0b"/>
    <circle cx="1020" cy="220" r="8" fill="#f59e0b"/>
    <circle cx="960" cy="240" r="6" fill="#ef4444"/>
    <circle cx="1000" cy="260" r="10" fill="#f59e0b"/>
    <line x1="980" y1="180" x2="1020" y2="220" stroke="#f59e0b" stroke-width="2" opacity="0.5"/>
    <line x1="1020" y1="220" x2="960" y2="240" stroke="#f59e0b" stroke-width="2" opacity="0.5"/>
    <line x1="960" y1="240" x2="1000" y2="260" stroke="#f59e0b" stroke-width="2" opacity="0.5"/>
    <line x1="980" y1="180" x2="1000" y2="260" stroke="#ef4444" stroke-width="1.5" opacity="0.4"/>
  </g>
  <rect x="0" y="0" width="1200" height="4" fill="url(#accent)"/>
  <rect x="80" y="185" width="190" height="34" rx="17" fill="#f59e0b" opacity="0.12"/>
  <rect x="80" y="185" width="190" height="34" rx="17" fill="none" stroke="#f59e0b" stroke-width="1" opacity="0.4"/>
  <text x="175" y="207" font-family="system-ui,sans-serif" font-size="12" font-weight="700" fill="#f59e0b" text-anchor="middle" letter-spacing="2">ANTI-AGING</text>
  <text x="80" y="278" font-family="system-ui,sans-serif" font-size="48" font-weight="800" fill="white">GHK-Cu &amp; Collagen:</text>
  <text x="80" y="340" font-family="system-ui,sans-serif" font-size="38" font-weight="700" fill="rgba(255,255,255,0.85)">The Gene-Level Skin</text>
  <text x="80" y="390" font-family="system-ui,sans-serif" font-size="38" font-weight="700" fill="rgba(255,255,255,0.85)">Anti-Aging Peptide</text>
  <rect x="80" y="410" width="120" height="3" rx="1.5" fill="url(#accent)"/>
  <text x="80" y="450" font-family="system-ui,sans-serif" font-size="18" fill="rgba(255,255,255,0.45)">4,000+ Genes Activated · Collagen Restored</text>
  <text x="80" y="580" font-family="system-ui,sans-serif" font-size="15" fill="rgba(255,255,255,0.3)" letter-spacing="3">PEPTIDELAB.COM</text>
</svg>
