<svg xmlns="http://www.w3.org/2000/svg" width="1200" height="630" viewBox="0 0 1200 630">
  <defs>
    <linearGradient id="bg" x1="0%" y1="0%" x2="100%" y2="100%">
      <stop offset="0%" style="stop-color:#1a0800"/>
      <stop offset="50%" style="stop-color:#0d0a00"/>
      <stop offset="100%" style="stop-color:#060612"/>
    </linearGradient>
    <linearGradient id="accent" x1="0%" y1="0%" x2="100%" y2="0%">
      <stop offset="0%" style="stop-color:#f97316"/>
      <stop offset="100%" style="stop-color:#eab308"/>
    </linearGradient>
    <linearGradient id="accent2" x1="0%" y1="0%" x2="100%" y2="0%">
      <stop offset="0%" style="stop-color:#eab308"/>
      <stop offset="100%" style="stop-color:#f97316"/>
    </linearGradient>
    <radialGradient id="orb1" cx="50%" cy="50%">
      <stop offset="0%" style="stop-color:#f97316;stop-opacity:0.22"/>
      <stop offset="100%" style="stop-color:#f97316;stop-opacity:0"/>
    </radialGradient>
    <radialGradient id="orb2" cx="50%" cy="50%">
      <stop offset="0%" style="stop-color:#eab308;stop-opacity:0.15"/>
      <stop offset="100%" style="stop-color:#eab308;stop-opacity:0"/>
    </radialGradient>
    <radialGradient id="sun" cx="50%" cy="50%">
      <stop offset="0%" style="stop-color:#fde68a;stop-opacity:0.6"/>
      <stop offset="40%" style="stop-color:#f97316;stop-opacity:0.25"/>
      <stop offset="100%" style="stop-color:#f97316;stop-opacity:0"/>
    </radialGradient>
  </defs>
  <rect width="1200" height="630" fill="url(#bg)"/>
  <!-- Background orbs -->
  <ellipse cx="980" cy="200" rx="420" ry="420" fill="url(#orb1)"/>
  <ellipse cx="820" cy="520" rx="260" ry="260" fill="url(#orb2)"/>
  <!-- Sun/UV circle motif -->
  <circle cx="1060" cy="280" r="130" fill="url(#sun)"/>
  <circle cx="1060" cy="280" r="95" fill="none" stroke="#f97316" stroke-width="1" opacity="0.2"/>
  <circle cx="1060" cy="280" r="65" fill="none" stroke="#eab308" stroke-width="1" opacity="0.25"/>
  <circle cx="1060" cy="280" r="38" fill="#fde68a" opacity="0.12"/>
  <!-- UV rays -->
  <g opacity="0.18" stroke="#f97316" stroke-width="1.5" fill="none">
    <line x1="1060" y1="120" x2="1060" y2="95"/>
    <line x1="1060" y1="440" x2="1060" y2="465"/>
    <line x1="900" y1="280" x2="875" y2="280"/>
    <line x1="1220" y1="280" x2="1195" y2="280"/>
    <line x1="947" y1="167" x2="929" y2="149"/>
    <line x1="1173" y1="393" x2="1191" y2="411"/>
    <line x1="1173" y1="167" x2="1191" y2="149"/>
    <line x1="947" y1="393" x2="929" y2="411"/>
  </g>
  <!-- Melanin molecule dots chain -->
  <g opacity="0.28">
    <circle cx="850" cy="480" r="7" fill="#eab308"/>
    <circle cx="895" cy="455" r="5" fill="#f97316"/>
    <circle cx="935" cy="475" r="8" fill="#eab308"/>
    <circle cx="975" cy="448" r="5" fill="#f97316"/>
    <circle cx="1010" cy="468" r="6" fill="#eab308"/>
    <line x1="850" y1="480" x2="895" y2="455" stroke="#f97316" stroke-width="1.5"/>
    <line x1="895" y1="455" x2="935" y2="475" stroke="#eab308" stroke-width="1.5"/>
    <line x1="935" y1="475" x2="975" y2="448" stroke="#f97316" stroke-width="1.5"/>
    <line x1="975" y1="448" x2="1010" y2="468" stroke="#eab308" stroke-width="1.5"/>
  </g>
  <!-- MC receptor hex grid -->
  <g opacity="0.06" stroke="#f97316" stroke-width="1" fill="none">
    <polygon points="880,60 930,89 930,146 880,175 830,146 830,89"/>
    <polygon points="980,60 1030,89 1030,146 980,175 930,146 930,89"/>
    <polygon points="1080,60 1130,89 1130,146 1080,175 1030,146 1030,89"/>
    <polygon points="930,146 980,175 980,232 930,261 880,232 880,175"/>
    <polygon points="1030,146 1080,175 1080,232 1030,261 980,232 980,175"/>
  </g>
  <!-- Top accent bar -->
  <rect x="0" y="0" width="1200" height="4" fill="url(#accent)"/>
  <!-- Category pill -->
  <rect x="80" y="185" width="200" height="34" rx="17" fill="#f97316" opacity="0.12"/>
  <rect x="80" y="185" width="200" height="34" rx="17" fill="none" stroke="#f97316" stroke-width="1" opacity="0.45"/>
  <text x="180" y="207" font-family="system-ui,sans-serif" font-size="12" font-weight="700" fill="#f97316" text-anchor="middle" letter-spacing="2">SKIN &amp; AESTHETICS</text>
  <!-- Title -->
  <text x="80" y="277" font-family="system-ui,sans-serif" font-size="50" font-weight="800" fill="white">Melanotan II</text>
  <text x="80" y="335" font-family="system-ui,sans-serif" font-size="38" font-weight="700" fill="rgba(255,255,255,0.88)">for Looksmaxxing</text>
  <!-- Accent line -->
  <rect x="80" y="358" width="130" height="3" rx="1.5" fill="url(#accent)"/>
  <!-- Subtitle -->
  <text x="80" y="400" font-family="system-ui,sans-serif" font-size="18" fill="rgba(255,255,255,0.48)">Melanocortin Science · UV-Independent Tan · Fat Loss</text>
  <!-- Receptor tags -->
  <g>
    <rect x="80" y="428" width="64" height="24" rx="4" fill="#f97316" opacity="0.18"/>
    <text x="112" y="444" font-family="system-ui,sans-serif" font-size="11" font-weight="700" fill="#f97316" text-anchor="middle">MC1R</text>
    <rect x="152" y="428" width="64" height="24" rx="4" fill="#eab308" opacity="0.18"/>
    <text x="184" y="444" font-family="system-ui,sans-serif" font-size="11" font-weight="700" fill="#eab308" text-anchor="middle">MC4R</text>
    <rect x="224" y="428" width="64" height="24" rx="4" fill="#f97316" opacity="0.18"/>
    <text x="256" y="444" font-family="system-ui,sans-serif" font-size="11" font-weight="700" fill="#f97316" text-anchor="middle">α-MSH</text>
  </g>
  <!-- Brand -->
  <text x="80" y="580" font-family="system-ui,sans-serif" font-size="15" fill="rgba(255,255,255,0.28)" letter-spacing="3">PEPTIDESMAXXING.COM</text>
</svg>
