<svg xmlns="http://www.w3.org/2000/svg" width="1200" height="630" viewBox="0 0 1200 630">
  <defs>
    <linearGradient id="bg" x1="0%" y1="0%" x2="100%" y2="100%">
      <stop offset="0%" style="stop-color:#001a0d"/>
      <stop offset="50%" style="stop-color:#000d0a"/>
      <stop offset="100%" style="stop-color:#060612"/>
    </linearGradient>
    <linearGradient id="accent" x1="0%" y1="0%" x2="100%" y2="0%">
      <stop offset="0%" style="stop-color:#10b981"/>
      <stop offset="100%" style="stop-color:#06b6d4"/>
    </linearGradient>
    <radialGradient id="orb1" cx="50%" cy="50%">
      <stop offset="0%" style="stop-color:#10b981;stop-opacity:0.2"/>
      <stop offset="100%" style="stop-color:#10b981;stop-opacity:0"/>
    </radialGradient>
    <radialGradient id="orb2" cx="50%" cy="50%">
      <stop offset="0%" style="stop-color:#06b6d4;stop-opacity:0.15"/>
      <stop offset="100%" style="stop-color:#06b6d4;stop-opacity:0"/>
    </radialGradient>
    <radialGradient id="follicle" cx="50%" cy="50%">
      <stop offset="0%" style="stop-color:#10b981;stop-opacity:0.35"/>
      <stop offset="100%" style="stop-color:#10b981;stop-opacity:0"/>
    </radialGradient>
  </defs>
  <rect width="1200" height="630" fill="url(#bg)"/>
  <!-- Background orbs -->
  <ellipse cx="1000" cy="220" rx="400" ry="400" fill="url(#orb1)"/>
  <ellipse cx="800" cy="520" rx="270" ry="270" fill="url(#orb2)"/>
  <!-- Hair follicle cross-section motif -->
  <g opacity="0.14" stroke="#10b981" stroke-width="1.2" fill="none">
    <!-- Outer bulb rings -->
    <ellipse cx="1070" cy="300" rx="120" ry="160"/>
    <ellipse cx="1070" cy="290" rx="85" ry="120"/>
    <ellipse cx="1070" cy="280" rx="52" ry="80"/>
    <ellipse cx="1070" cy="275" rx="24" ry="40"/>
  </g>
  <!-- Hair shaft lines -->
  <g opacity="0.2" stroke="#10b981" stroke-width="2" stroke-linecap="round">
    <line x1="1050" y1="80" x2="1040" y2="500"/>
    <line x1="1070" y1="80" x2="1062" y2="500"/>
    <line x1="1090" y1="80" x2="1084" y2="500"/>
    <line x1="1020" y1="90" x2="1008" y2="510"/>
    <line x1="1110" y1="90" x2="1116" y2="510"/>
  </g>
  <!-- VEGF angiogenesis vessels -->
  <g opacity="0.12" stroke="#06b6d4" stroke-width="2" fill="none">
    <path d="M 900 400 Q 930 350 960 380 Q 990 410 1020 370 Q 1050 330 1080 360"/>
    <path d="M 900 450 Q 940 420 970 440 Q 1000 460 1030 430 Q 1060 400 1090 420"/>
  </g>
  <!-- Molecule chain (GHK-Cu) -->
  <g opacity="0.3">
    <circle cx="840" cy="500" r="9" fill="#10b981"/>
    <circle cx="885" cy="475" r="6" fill="#06b6d4"/>
    <circle cx="925" cy="495" r="10" fill="#10b981"/>
    <circle cx="968" cy="468" r="6" fill="#06b6d4"/>
    <circle cx="1005" cy="488" r="7" fill="#10b981"/>
    <circle cx="845" cy="500" r="4" fill="#a7f3d0" opacity="0.8"/>
    <line x1="849" y1="500" x2="885" y2="475" stroke="#10b981" stroke-width="1.5"/>
    <line x1="885" y1="475" x2="925" y2="495" stroke="#06b6d4" stroke-width="1.5"/>
    <line x1="925" y1="495" x2="968" y2="468" stroke="#10b981" stroke-width="1.5"/>
    <line x1="968" y1="468" x2="1005" y2="488" stroke="#06b6d4" stroke-width="1.5"/>
  </g>
  <!-- Cell dots pattern -->
  <g opacity="0.07" fill="#10b981">
    <circle cx="870" cy="200" r="3"/>
    <circle cx="900" cy="180" r="4"/>
    <circle cx="930" cy="210" r="3"/>
    <circle cx="870" cy="240" r="4"/>
    <circle cx="910" cy="255" r="3"/>
    <circle cx="940" cy="230" r="5"/>
    <circle cx="960" cy="200" r="3"/>
    <circle cx="890" cy="270" r="3"/>
  </g>
  <!-- Top accent bar -->
  <rect x="0" y="0" width="1200" height="4" fill="url(#accent)"/>
  <!-- Category pill -->
  <rect x="80" y="185" width="200" height="34" rx="17" fill="#10b981" opacity="0.12"/>
  <rect x="80" y="185" width="200" height="34" rx="17" fill="none" stroke="#10b981" stroke-width="1" opacity="0.45"/>
  <text x="180" y="207" font-family="system-ui,sans-serif" font-size="12" font-weight="700" fill="#10b981" text-anchor="middle" letter-spacing="2">SKIN &amp; AESTHETICS</text>
  <!-- Title -->
  <text x="80" y="277" font-family="system-ui,sans-serif" font-size="46" font-weight="800" fill="white">Peptides for</text>
  <text x="80" y="333" font-family="system-ui,sans-serif" font-size="46" font-weight="800" fill="white">Hair Regrowth</text>
  <!-- Accent line -->
  <rect x="80" y="356" width="130" height="3" rx="1.5" fill="url(#accent)"/>
  <!-- Subtitle -->
  <text x="80" y="398" font-family="system-ui,sans-serif" font-size="18" fill="rgba(255,255,255,0.48)">GHK-Cu · BPC-157 · TB-500 · Follicle Science 2026</text>
  <!-- Mechanism tags -->
  <g>
    <rect x="80" y="426" width="90" height="24" rx="4" fill="#10b981" opacity="0.15"/>
    <text x="125" y="442" font-family="system-ui,sans-serif" font-size="11" font-weight="700" fill="#10b981" text-anchor="middle">GHK-Cu</text>
    <rect x="178" y="426" width="80" height="24" rx="4" fill="#06b6d4" opacity="0.15"/>
    <text x="218" y="442" font-family="system-ui,sans-serif" font-size="11" font-weight="700" fill="#06b6d4" text-anchor="middle">BPC-157</text>
    <rect x="266" y="426" width="76" height="24" rx="4" fill="#10b981" opacity="0.15"/>
    <text x="304" y="442" font-family="system-ui,sans-serif" font-size="11" font-weight="700" fill="#10b981" text-anchor="middle">TB-500</text>
    <rect x="350" y="426" width="56" height="24" rx="4" fill="#06b6d4" opacity="0.15"/>
    <text x="378" y="442" font-family="system-ui,sans-serif" font-size="11" font-weight="700" fill="#06b6d4" text-anchor="middle">VEGF</text>
  </g>
  <!-- Brand -->
  <text x="80" y="580" font-family="system-ui,sans-serif" font-size="15" fill="rgba(255,255,255,0.28)" letter-spacing="3">PEPTIDESMAXXING.COM</text>
</svg>
