<svg xmlns="http://www.w3.org/2000/svg" width="1200" height="630" viewBox="0 0 1200 630">
  <defs>
    <linearGradient id="bg" x1="0%" y1="0%" x2="100%" y2="100%">
      <stop offset="0%" style="stop-color:#000d1a"/>
      <stop offset="100%" style="stop-color:#00060f"/>
    </linearGradient>
    <linearGradient id="accent" x1="0%" y1="0%" x2="100%" y2="0%">
      <stop offset="0%" style="stop-color:#06b6d4"/>
      <stop offset="100%" style="stop-color:#3b82f6"/>
    </linearGradient>
    <radialGradient id="orb1" cx="50%" cy="50%">
      <stop offset="0%" style="stop-color:#06b6d4;stop-opacity:0.2"/>
      <stop offset="100%" style="stop-color:#06b6d4;stop-opacity:0"/>
    </radialGradient>
  </defs>
  <rect width="1200" height="630" fill="url(#bg)"/>
  <ellipse cx="1000" cy="280" rx="400" ry="400" fill="url(#orb1)"/>
  <!-- Neural network nodes -->
  <g opacity="0.15" stroke="#06b6d4" stroke-width="1.2" fill="none">
    <line x1="820" y1="120" x2="920" y2="200"/>
    <line x1="820" y1="120" x2="900" y2="280"/>
    <line x1="920" y1="200" x2="1020" y2="160"/>
    <line x1="920" y1="200" x2="1000" y2="300"/>
    <line x1="1020" y1="160" x2="1100" y2="240"/>
    <line x1="1000" y1="300" x2="1100" y2="240"/>
    <line x1="900" y1="280" x2="1000" y2="300"/>
    <line x1="1000" y1="300" x2="1080" y2="400"/>
    <line x1="1100" y1="240" x2="1150" y2="340"/>
    <line x1="1080" y1="400" x2="1150" y2="340"/>
    <line x1="900" y1="280" x2="950" y2="380"/>
    <line x1="950" y1="380" x2="1080" y2="400"/>
    <line x1="820" y1="120" x2="750" y2="220"/>
    <line x1="750" y1="220" x2="900" y2="280"/>
    <line x1="750" y1="220" x2="820" y2="350"/>
    <line x1="820" y1="350" x2="950" y2="380"/>
  </g>
  <g opacity="0.3" fill="#06b6d4">
    <circle cx="820" cy="120" r="8"/>
    <circle cx="920" cy="200" r="10"/>
    <circle cx="1020" cy="160" r="7"/>
    <circle cx="900" cy="280" r="9"/>
    <circle cx="1000" cy="300" r="12"/>
    <circle cx="1100" cy="240" r="8"/>
    <circle cx="1080" cy="400" r="7"/>
    <circle cx="1150" cy="340" r="6"/>
    <circle cx="950" cy="380" r="8"/>
    <circle cx="750" cy="220" r="7"/>
    <circle cx="820" cy="350" r="6"/>
  </g>
  <!-- BDNF text hint -->
  <text x="955" y="308" font-family="system-ui,sans-serif" font-size="10" fill="#06b6d4" opacity="0.4" text-anchor="middle">BDNF</text>
  <rect x="0" y="0" width="1200" height="4" fill="url(#accent)"/>
  <rect x="80" y="185" width="215" height="34" rx="17" fill="none" stroke="#06b6d4" stroke-width="1" opacity="0.4"/>
  <text x="187" y="207" font-family="system-ui,sans-serif" font-size="12" font-weight="700" fill="#06b6d4" text-anchor="middle" letter-spacing="2">COGNITIVE &amp; NOOTROPIC</text>
  <text x="80" y="278" font-family="system-ui,sans-serif" font-size="52" font-weight="800" fill="white">Semax</text>
  <text x="80" y="340" font-family="system-ui,sans-serif" font-size="34" font-weight="700" fill="rgba(255,255,255,0.85)">The BDNF-Boosting</text>
  <text x="80" y="388" font-family="system-ui,sans-serif" font-size="34" font-weight="700" fill="rgba(255,255,255,0.85)">Nootropic Peptide</text>
  <rect x="80" y="408" width="120" height="3" rx="1.5" fill="url(#accent)"/>
  <text x="80" y="448" font-family="system-ui,sans-serif" font-size="18" fill="rgba(255,255,255,0.45)">800% BDNF Upregulation · Research Review 2026</text>
  <text x="80" y="580" font-family="system-ui,sans-serif" font-size="15" fill="rgba(255,255,255,0.3)" letter-spacing="3">PEPTIDELAB.COM</text>
</svg>
